HIERARCHY
ROOT Hips
{
	OFFSET 0.000000 0.000000 0.000000
	CHANNELS 6 Xposition Yposition Zposition Zrotation Yrotation Xrotation 
	JOINT LHipJoint
	{
		OFFSET 0.000000 0.000000 0.000000
		CHANNELS 3 Zrotation Yrotation Xrotation
		JOINT LeftUpLeg
		{
			OFFSET 1.363060 -1.794630 0.839290
			CHANNELS 3 Zrotation Yrotation Xrotation
			JOINT LeftLeg
			{
				OFFSET 2.448110 -6.726130 0.000000
				CHANNELS 3 Zrotation Yrotation Xrotation
				JOINT LeftFoot
				{
					OFFSET 2.562200 -7.039590 0.000000
					CHANNELS 3 Zrotation Yrotation Xrotation
					JOINT LeftToeBase
					{
						OFFSET 0.157640 -0.433110 2.322550
						CHANNELS 3 Zrotation Yrotation Xrotation
						End Site
						{
							OFFSET 0.000000 0.000000 0.000000
						}
					}
				}
			}
		}
	}
	JOINT RHipJoint
	{
		OFFSET 0.000000 0.000000 0.000000
		CHANNELS 3 Zrotation Yrotation Xrotation
		JOINT RightUpLeg
		{
			OFFSET -1.305520 -1.794630 0.839290
			CHANNELS 3 Zrotation Yrotation Xrotation
			JOINT RightLeg
			{
				OFFSET -2.542530 -6.985550 0.000000
				CHANNELS 3 Zrotation Yrotation Xrotation
				JOINT RightFoot
				{
					OFFSET -2.568260 -7.056230 0.000000
					CHANNELS 3 Zrotation Yrotation Xrotation
					JOINT RightToeBase
					{
						OFFSET -0.164730 -0.452590 2.363150
						CHANNELS 3 Zrotation Yrotation Xrotation
						End Site
						{
							OFFSET 0.000000 0.000000 0.000000
						}
					}
				}
			}
		}
	}
	JOINT LowerBack
	{
		OFFSET 0.000000 0.000000 0.000000
		CHANNELS 3 Zrotation Yrotation Xrotation
		JOINT Spine
		{
			OFFSET 0.028270 2.035590 -0.193380
			CHANNELS 3 Zrotation Yrotation Xrotation
			JOINT Spine1
			{
				OFFSET 0.056720 2.048850 -0.042750
				CHANNELS 3 Zrotation Yrotation Xrotation
				JOINT Neck
				{
					OFFSET 0.000000 0.000000 0.000000
					CHANNELS 3 Zrotation Yrotation Xrotation
					JOINT Neck1
					{
						OFFSET -0.054170 1.746240 0.172020
						CHANNELS 3 Zrotation Yrotation Xrotation
						JOINT Head
						{
							OFFSET 0.104070 1.761360 -0.123970
							CHANNELS 3 Zrotation Yrotation Xrotation
							End Site
							{
								OFFSET 0.000000 0.000000 0.000000
							}
						}
					}
				}
				JOINT LeftShoulder
				{
					OFFSET 0.000000 0.000000 0.000000
					CHANNELS 3 Zrotation Yrotation Xrotation
					JOINT LeftArm
					{
						OFFSET 3.362410 1.200890 -0.311210
						CHANNELS 3 Zrotation Yrotation Xrotation
						JOINT LeftForeArm
						{
							OFFSET 4.983000 -0.000000 -0.000000
							CHANNELS 3 Zrotation Yrotation Xrotation
							JOINT LeftHand
							{
								OFFSET 3.483560 -0.000000 -0.000000
								CHANNELS 3 Zrotation Yrotation Xrotation
								JOINT LeftFingerBase
								{
									OFFSET 0.000000 0.000000 0.000000
									CHANNELS 3 Zrotation Yrotation Xrotation
									JOINT LeftHandIndex1
									{
										OFFSET 0.715260 -0.000000 -0.000000
										CHANNELS 3 Zrotation Yrotation Xrotation
										End Site
										{
											OFFSET 0.000000 0.000000 0.000000
										}
									}
								}
								JOINT LThumb
								{
									OFFSET 0.000000 0.000000 0.000000
									CHANNELS 3 Zrotation Yrotation Xrotation
									End Site
									{
										OFFSET 0.000000 0.000000 0.000000
									}
								}
							}
						}
					}
				}
				JOINT RightShoulder
				{
					OFFSET 0.000000 0.000000 0.000000
					CHANNELS 3 Zrotation Yrotation Xrotation
					JOINT RightArm
					{
						OFFSET -3.136600 1.374050 -0.404650
						CHANNELS 3 Zrotation Yrotation Xrotation
						JOINT RightForeArm
						{
							OFFSET -5.241900 -0.000000 -0.000000
							CHANNELS 3 Zrotation Yrotation Xrotation
							JOINT RightHand
							{
								OFFSET -3.444170 -0.000000 -0.000000
								CHANNELS 3 Zrotation Yrotation Xrotation
								JOINT RightFingerBase
								{
									OFFSET 0.000000 0.000000 0.000000
									CHANNELS 3 Zrotation Yrotation Xrotation
									JOINT RightHandIndex1
									{
										OFFSET -0.622530 -0.000000 -0.000000
										CHANNELS 3 Zrotation Yrotation Xrotation
										End Site
										{
											OFFSET 0.000000 0.000000 0.000000
										}
									}
								}
								JOINT RThumb
								{
									OFFSET 0.000000 0.000000 0.000000
									CHANNELS 3 Zrotation Yrotation Xrotation
									End Site
									{
										OFFSET 0.000000 0.000000 0.000000
									}
								}
							}
						}
					}
				}
			}
		}
	}
}
MOTION
Frames: 8
Frame Time: 0.008333
13.457350 17.951464 3.612736 -1.233966 -85.483643 10.440208 -0.965406 2.476737 1.937470 -13.799875 -5.895202 -10.793079 2.079761 9.756548 31.847227 0.106632 0.080510 0.399119 1.619300 -8.023500 -22.785500 1.016474 -2.212185 0.851040 18.032990 8.683512 -24.143214 -1.504245 -9.524206 28.512882 1.081141 -7.712405 -10.073378 -0.418800 -4.154000 11.510200 0.780991 1.111454 2.668039 2.252103 1.005152 -0.946778 3.411963 1.030856 -2.143629 -5.640871 5.669794 -20.405009 -0.300867 8.930520 16.436977 2.451700 3.047300 11.360200 -10.380877 -1.352480 -1.447561 -78.469106 -5.612917 24.933049 14.268504 -25.991862 -3.836347 -0.119142 -1.430109 7.159453 15.561282 22.048385 6.326300 -7.125000 0.000000 0.000000 -14.321100 53.736500 -3.126000 9.733889 1.317191 -1.668320 72.456834 -0.642930 11.554612 -16.502699 23.579478 -4.241928 0.701332 -0.627111 18.884944 -21.618979 2.308743 -1.111800 7.125000 0.000000 0.000000 3.147100 -27.068400 1.372200 
13.448316 17.951564 3.596877 -1.476698 -85.544659 10.784336 -0.918780 2.421287 1.854203 -13.764413 -6.167394 -11.650399 2.374340 10.191261 33.226856 0.107331 0.058266 0.570749 1.488700 -7.708100 -21.831000 1.023100 -2.181312 0.863180 18.142373 8.550570 -24.315023 -1.505407 -9.510570 28.494917 1.103157 -7.762790 -9.871737 -0.357600 -3.841500 10.631200 0.905747 1.170363 2.754363 2.270241 1.092001 -0.936355 3.348479 1.070982 -2.146161 -6.223869 5.447460 -20.727443 0.266811 8.815379 16.594665 2.738200 3.006000 11.449800 -10.392625 -1.305103 -1.452526 -78.701191 -5.854457 24.794380 13.970139 -25.560595 -3.685403 -0.134661 -1.424955 7.699032 15.564236 22.009081 6.317700 -7.125000 0.000000 0.000000 -14.295400 53.694800 -3.105500 9.738475 1.372065 -1.654702 72.354902 -0.453001 11.343079 -16.493713 23.563796 -4.240397 0.710649 -0.636461 18.987955 -21.830632 2.286574 -1.116900 7.125000 0.000000 0.000000 2.975600 -27.082800 1.296200 
13.437175 17.949557 3.581721 -2.395090 -85.690341 11.874311 -0.856581 2.372665 1.778508 -13.712331 -6.271842 -12.554469 2.643256 10.574357 34.451440 0.114663 -0.000013 0.815115 1.504200 -7.746300 -21.946200 1.042927 -2.140530 0.870517 18.263361 8.467109 -24.548589 -1.504832 -9.495509 28.471028 1.086511 -7.646924 -9.695366 -0.354400 -3.824500 10.583600 1.090187 1.260628 2.747868 2.236651 1.215323 -0.979157 3.184666 1.138965 -2.181866 -6.247843 5.376635 -20.769264 0.379418 8.722106 16.604537 2.767000 2.977500 11.463200 -10.408101 -1.290196 -1.440952 -78.995490 -5.996194 24.471782 13.624326 -25.055705 -3.519170 -0.144265 -1.412303 8.404397 15.309545 21.706354 6.128700 -7.125000 0.000000 0.000000 -14.407700 53.336300 -3.003200 9.745010 1.392049 -1.645940 72.248233 -0.331003 11.420041 -16.413758 23.464291 -4.202606 0.705466 -0.634368 19.069638 -21.694797 2.262663 -1.098600 7.125000 0.000000 0.000000 3.083900 -27.113000 1.341300 
13.422420 17.949356 3.562449 -3.274931 -85.786244 12.816369 -0.800032 2.337487 1.715458 -13.662773 -6.348661 -13.279993 2.894914 10.915216 35.558549 0.089515 0.115596 0.914754 1.592500 -7.960100 -22.592900 1.064917 -2.115660 0.881041 18.374511 8.558430 -24.576796 -1.512814 -9.490408 28.496352 1.077327 -7.620476 -9.764218 -0.368600 -3.899900 10.795100 1.175893 1.309575 2.768702 2.191976 1.278784 -1.002435 3.071129 1.180609 -2.216103 -5.941932 5.422833 -20.631435 0.253297 8.675551 16.569799 2.659400 2.972400 11.439700 -10.420755 -1.295505 -1.425442 -79.182021 -5.983917 24.023502 13.350664 -24.656247 -3.394088 -0.143107 -1.401310 9.068235 14.845357 21.432995 5.859300 -7.125000 0.000000 0.000000 -14.750200 52.968300 -2.942700 9.750010 1.388556 -1.641428 72.258575 -0.238026 11.367492 -16.330616 23.358157 -4.162430 0.685864 -0.634399 19.551896 -21.424895 2.254026 -1.079200 7.125000 0.000000 0.000000 3.302600 -27.128900 1.435500 
13.407966 17.946646 3.544984 -3.967352 -85.814277 13.436211 -0.757071 2.316053 1.665872 -13.604619 -6.518482 -13.762595 3.115079 11.202239 36.510777 0.088996 0.141618 0.647276 1.606500 -7.993200 -22.693300 1.081816 -2.103808 0.894869 18.487847 8.610980 -24.464044 -1.527152 -9.493418 28.553611 1.072239 -7.617058 -9.853400 -0.365500 -3.883500 10.749100 1.266951 1.362313 2.878204 2.180496 1.352984 -0.946965 2.995686 1.220149 -2.194730 -5.872737 5.370618 -20.557544 0.261072 8.571610 16.468697 2.632100 2.941500 11.395800 -10.432119 -1.290432 -1.418267 -79.303151 -6.028490 24.108957 13.136630 -24.341078 -3.283839 -0.168919 -1.402218 9.293647 15.313508 21.537284 6.088000 -7.125000 0.000000 0.000000 -14.318900 53.163900 -2.923000 9.755450 1.398338 -1.630703 72.200347 -0.078668 11.245284 -16.264888 23.271033 -4.132601 0.689402 -0.637058 19.860816 -21.459185 2.110899 -1.021600 7.125000 0.000000 0.000000 3.274200 -27.285500 1.411000 
13.392810 17.940925 3.528925 -2.173055 -85.912380 11.522684 -0.765222 2.267934 1.620924 -13.709156 -6.626984 -14.099380 3.293034 11.419010 37.278523 0.169587 -0.211426 0.080898 1.585900 -7.944200 -22.544700 1.056804 -2.126688 0.914603 18.454625 8.617664 -24.335306 -1.543511 -9.511704 28.629813 1.060964 -7.568683 -9.871384 -0.326200 -3.671000 10.152900 1.180672 1.434565 3.010826 2.143447 1.453462 -0.855158 2.960751 1.263875 -2.140069 -5.921211 5.273212 -20.654642 0.350365 8.456564 16.486911 2.655800 2.897400 11.422700 -10.443774 -1.290413 -1.408341 -79.395516 -6.222742 24.459446 12.867291 -23.939929 -3.141586 -0.210670 -1.407971 9.071932 16.312468 21.751484 6.584700 -7.125000 0.000000 0.000000 -13.384500 53.579900 -2.863900 9.765056 1.409283 -1.620488 72.087910 0.107883 11.206382 -16.205176 23.192724 -4.106193 0.698877 -0.640053 19.840017 -21.559074 2.036006 -0.996400 7.125000 0.000000 0.000000 3.191300 -27.364300 1.369300 
13.369523 17.937211 3.516579 -1.221383 -86.186330 10.468126 -0.761372 2.232933 1.587577 -13.830857 -6.616664 -14.423679 3.431671 11.586545 37.879924 0.310705 -0.842957 -0.577163 1.539100 -7.831700 -22.204100 1.048881 -2.137908 0.928508 18.453306 8.698665 -24.213894 -1.567836 -9.539679 28.744201 1.039289 -7.480800 -9.916414 -0.289800 -3.461900 9.567500 1.141059 1.504523 3.037328 2.070383 1.545628 -0.787907 2.862793 1.307107 -2.061763 -5.777249 5.302095 -20.645015 0.436999 8.438749 16.582210 2.657900 2.909900 11.455700 -10.459610 -1.293800 -1.392313 -79.456772 -6.360279 24.105916 12.537013 -23.446983 -2.986073 -0.237134 -1.401501 9.498581 16.591171 21.672827 6.687700 -7.125000 0.000000 0.000000 -13.053600 53.554000 -2.782900 9.776356 1.414766 -1.610397 72.028059 0.267761 11.384718 -16.088325 23.046174 -4.051920 0.690985 -0.641534 19.785370 -21.405240 2.118154 -1.024000 7.125000 0.000000 0.000000 3.313400 -27.273300 1.429000 
13.337705 17.935003 3.510757 -0.081630 -86.550986 9.289811 -0.767878 2.194593 1.555084 -14.029114 -6.646727 -14.710927 3.536738 11.710607 38.334204 0.453267 -1.468348 -1.268683 1.463000 -7.644200 -21.638600 1.034655 -2.146632 0.939825 18.417706 8.702829 -24.190418 -1.596127 -9.577645 28.875852 0.992604 -7.239101 -9.787847 -0.288100 -3.451800 9.539200 1.122391 1.605731 2.879949 2.024393 1.673269 -0.708058 2.786854 1.364929 -1.860619 -5.760982 5.291772 -20.653324 0.581249 8.410329 16.678159 2.699200 2.913800 11.486200 -10.472239 -1.285121 -1.379912 -79.632177 -6.426409 23.590214 12.267590 -23.039991 -2.866162 -0.248349 -1.390947 10.285752 16.394022 21.525796 6.559800 -7.125000 0.000000 0.000000 -13.187400 53.361400 -2.749600 9.790839 1.420499 -1.597449 71.825199 0.427703 11.596681 -15.978230 22.914415 -4.002488 0.683857 -0.640783 19.744189 -21.243872 2.176519 -1.039800 7.125000 0.000000 0.000000 3.441500 -27.211300 1.489400 
